<?xml version="1.0" encoding="UTF-8" standalone="no"?>
<svg
   xmlns:dc="http://purl.org/dc/elements/1.1/"
   xmlns:cc="http://creativecommons.org/ns#"
   xmlns:rdf="http://www.w3.org/1999/02/22-rdf-syntax-ns#"
   xmlns:svg="http://www.w3.org/2000/svg"
   xmlns="http://www.w3.org/2000/svg"
   xmlns:sodipodi="http://sodipodi.sourceforge.net/DTD/sodipodi-0.dtd"
   xmlns:inkscape="http://www.inkscape.org/namespaces/inkscape"
   viewBox="0 0 60.543419 49.937401"
   version="1.1"
   xml:space="preserve"
   style="clip-rule:evenodd;fill-rule:evenodd;stroke-linejoin:round;stroke-miterlimit:1.41420996"
   x="0px"
   y="0px"
   stroke-miterlimit="1.41421"
   id="svg2"
   inkscape:version="0.91 r13725"
   sodipodi:docname="back.svg"
   width="60.543419"
   height="49.937401"><metadata
     id="metadata12"><rdf:RDF><cc:Work
         rdf:about=""><dc:format>image/svg+xml</dc:format><dc:type
           rdf:resource="http://purl.org/dc/dcmitype/StillImage" /><dc:title></dc:title></cc:Work></rdf:RDF></metadata><defs
     id="defs10" /><sodipodi:namedview
     pagecolor="#ffffff"
     bordercolor="#666666"
     borderopacity="1"
     objecttolerance="10"
     gridtolerance="10"
     guidetolerance="10"
     inkscape:pageopacity="0"
     inkscape:pageshadow="2"
     inkscape:window-width="1311"
     inkscape:window-height="744"
     id="namedview8"
     showgrid="false"
     fit-margin-top="0"
     fit-margin-left="0"
     fit-margin-right="0"
     fit-margin-bottom="0"
     inkscape:zoom="2.36"
     inkscape:cx="19.958502"
     inkscape:cy="33.43765"
     inkscape:window-x="55"
     inkscape:window-y="24"
     inkscape:window-maximized="1"
     inkscape:current-layer="svg2" /><g
     transform="matrix(-1.5137936,0,0,1.5137936,175.59173,-47.684877)"
     id="g4"><path
       d="M 110.879,46.5 98.439,34.061 c -0.585,-0.586 -0.585,-1.536 0,-2.122 0.586,-0.585 1.536,-0.585 2.122,0 0,0 11.414,11.415 14.994,14.995 0.586,0.585 0.586,1.535 0,2.121 -3.42,3.42 -14.464,14.464 -14.994,14.994 -0.586,0.586 -1.536,0.586 -2.122,0 -0.585,-0.586 -0.585,-1.535 0,-2.121 L 110.867,49.5 77.5,49.5 c -0.398,0 -0.779,-0.158 -1.061,-0.439 C 76.158,48.779 76,48.398 76,48 76,47.602 76.158,47.221 76.439,46.939 76.721,46.658 77.102,46.5 77.5,46.5 l 33.379,0 z"
       style="fill:#ffffff;fill-opacity:1"
       id="path6"
       inkscape:connector-curvature="0" /></g></svg>