<?xml version="1.0" encoding="UTF-8" standalone="no"?>
<svg
   xmlns:dc="http://purl.org/dc/elements/1.1/"
   xmlns:cc="http://creativecommons.org/ns#"
   xmlns:rdf="http://www.w3.org/1999/02/22-rdf-syntax-ns#"
   xmlns:svg="http://www.w3.org/2000/svg"
   xmlns="http://www.w3.org/2000/svg"
   xmlns:sodipodi="http://sodipodi.sourceforge.net/DTD/sodipodi-0.dtd"
   xmlns:inkscape="http://www.inkscape.org/namespaces/inkscape"
   version="1.1"
   x="0px"
   y="0px"
   viewBox="0 0 73.400002 61.400002"
   xml:space="preserve"
   id="svg2"
   inkscape:version="0.91 r13725"
   sodipodi:docname="calender.svg"
   width="73.400002"
   height="61.400002"><metadata
     id="metadata62"><rdf:RDF><cc:Work
         rdf:about=""><dc:format>image/svg+xml</dc:format><dc:type
           rdf:resource="http://purl.org/dc/dcmitype/StillImage" /><dc:title></dc:title></cc:Work></rdf:RDF></metadata><defs
     id="defs60" /><sodipodi:namedview
     pagecolor="#ffffff"
     bordercolor="#666666"
     borderopacity="1"
     objecttolerance="10"
     gridtolerance="10"
     guidetolerance="10"
     inkscape:pageopacity="0"
     inkscape:pageshadow="2"
     inkscape:window-width="718"
     inkscape:window-height="480"
     id="namedview58"
     showgrid="false"
     fit-margin-top="0"
     fit-margin-left="0"
     fit-margin-right="0"
     fit-margin-bottom="0"
     inkscape:zoom="2.36"
     inkscape:cx="37"
     inkscape:cy="30.5"
     inkscape:window-x="55"
     inkscape:window-y="24"
     inkscape:window-maximized="0"
     inkscape:current-layer="svg2" /><path
     d="m 48.3,12.1 0.3,0 c 0.8,0 1.4,-0.6 1.4,-1.4 L 50,1.4 C 50,0.6 49.4,0 48.6,0 l -0.3,0 c -0.8,0 -1.4,0.6 -1.4,1.4 l 0,9.3 c 0,0.8 0.6,1.4 1.4,1.4 z"
     id="path4"
     inkscape:connector-curvature="0" /><path
     d="m 24.8,12.1 0.3,0 c 0.8,0 1.4,-0.6 1.4,-1.4 l 0,-9.3 C 26.5,0.6 25.9,0 25.1,0 L 24.8,0 C 24,0 23.4,0.6 23.4,1.4 l 0,9.3 c 0.1,0.8 0.7,1.4 1.4,1.4 z"
     id="path6"
     inkscape:connector-curvature="0" /><rect
     x="29.5"
     y="4.6000009"
     width="14.5"
     height="3"
     id="rect8" /><path
     d="m 34.4,24.6 4,0 c 0.6,0 1,-0.4 1,-1 l 0,-4 c 0,-0.6 -0.4,-1 -1,-1 l -4,0 c -0.6,0 -1,0.4 -1,1 l 0,4 c 0,0.6 0.4,1 1,1 z"
     id="path10"
     inkscape:connector-curvature="0" /><path
     d="m 43.6,24.6 4,0 c 0.6,0 1,-0.4 1,-1 l 0,-4 c 0,-0.6 -0.4,-1 -1,-1 l -4,0 c -0.6,0 -1,0.4 -1,1 l 0,4 c 0,0.6 0.4,1 1,1 z"
     id="path12"
     inkscape:connector-curvature="0" /><path
     d="m 52.7,24.6 4,0 c 0.6,0 1,-0.4 1,-1 l 0,-4 c 0,-0.6 -0.4,-1 -1,-1 l -4,0 c -0.6,0 -1,0.4 -1,1 l 0,4 c 0,0.6 0.5,1 1,1 z"
     id="path14"
     inkscape:connector-curvature="0" /><path
     d="m 65.9,18.6 -4,0 c -0.6,0 -1,0.4 -1,1 l 0,4 c 0,0.6 0.4,1 1,1 l 4,0 c 0.6,0 1,-0.4 1,-1 l 0,-4 c 0,-0.6 -0.4,-1 -1,-1 z"
     id="path16"
     inkscape:connector-curvature="0" /><path
     d="m 7,33.6 4,0 c 0.6,0 1,-0.4 1,-1 l 0,-4 c 0,-0.6 -0.4,-1 -1,-1 l -4,0 c -0.6,0 -1,0.4 -1,1 l 0,4 c 0,0.6 0.4,1 1,1 z"
     id="path18"
     inkscape:connector-curvature="0" /><path
     d="m 16.2,27.6 c -0.6,0 -1,0.4 -1,1 l 0,4 c 0,0.6 0.4,1 1,1 l 4,0 c 0.6,0 1,-0.4 1,-1 l 0,-4 c 0,-0.6 -0.4,-1 -1,-1 l -4,0 z"
     id="path20"
     inkscape:connector-curvature="0" /><path
     d="m 38.5,27.6 -4,0 c -0.6,0 -1,0.4 -1,1 l 0,4 c 0,0.6 0.4,1 1,1 l 4,0 c 0.6,0 1,-0.4 1,-1 l 0,-4 c 0,-0.6 -0.4,-1 -1,-1 z"
     id="path22"
     inkscape:connector-curvature="0" /><path
     d="m 47.7,27.6 -4,0 c -0.6,0 -1,0.4 -1,1 l 0,4 c 0,0.6 0.4,1 1,1 l 4,0 c 0.6,0 1,-0.4 1,-1 l 0,-4 c 0,-0.6 -0.4,-1 -1,-1 z"
     id="path24"
     inkscape:connector-curvature="0" /><path
     d="m 56.9,27.6 -4,0 c -0.6,0 -1,0.4 -1,1 l 0,4 c 0,0.6 0.4,1 1,1 l 4,0 c 0.6,0 1,-0.4 1,-1 l 0,-4 c 0,-0.6 -0.4,-1 -1,-1 z"
     id="path26"
     inkscape:connector-curvature="0" /><path
     d="m 66.1,27.6 -4,0 c -0.6,0 -1,0.4 -1,1 l 0,4 c 0,0.6 0.4,1 1,1 l 4,0 c 0.6,0 1,-0.4 1,-1 l 0,-4 c 0,-0.6 -0.4,-1 -1,-1 z"
     id="path28"
     inkscape:connector-curvature="0" /><path
     d="m 25.4,33.6 4,0 c 0.6,0 1,-0.4 1,-1 l 0,-4 c 0,-0.6 -0.4,-1 -1,-1 l -4,0 c -0.6,0 -1,0.4 -1,1 l 0,4 c 0,0.6 0.4,1 1,1 z"
     id="path30"
     inkscape:connector-curvature="0" /><path
     d="m 12.2,37.6 c 0,-0.6 -0.4,-1 -1,-1 l -4,0 c -0.6,0 -1,0.4 -1,1 l 0,4 c 0,0.6 0.4,1 1,1 l 4,0 c 0.6,0 1,-0.4 1,-1 l 0,-4 z"
     id="path32"
     inkscape:connector-curvature="0" /><path
     d="m 16,42.6 4,0 c 0.6,0 1,-0.4 1,-1 l 0,-4 c 0,-0.6 -0.4,-1 -1,-1 l -4,0 c -0.6,0 -1,0.4 -1,1 l 0,4 c 0,0.6 0.4,1 1,1 z"
     id="path34"
     inkscape:connector-curvature="0" /><path
     d="m 34.4,42.6 4,0 c 0.6,0 1,-0.4 1,-1 l 0,-4 c 0,-0.6 -0.4,-1 -1,-1 l -4,0 c -0.6,0 -1,0.4 -1,1 l 0,4 c 0,0.6 0.4,1 1,1 z"
     id="path36"
     inkscape:connector-curvature="0" /><path
     d="m 43.6,42.6 4,0 c 0.6,0 1,-0.4 1,-1 l 0,-4 c 0,-0.6 -0.4,-1 -1,-1 l -4,0 c -0.6,0 -1,0.4 -1,1 l 0,4 c 0,0.6 0.4,1 1,1 z"
     id="path38"
     inkscape:connector-curvature="0" /><path
     d="m 52.7,42.6 4,0 c 0.6,0 1,-0.4 1,-1 l 0,-4 c 0,-0.6 -0.4,-1 -1,-1 l -4,0 c -0.6,0 -1,0.4 -1,1 l 0,4 c 0,0.6 0.5,1 1,1 z"
     id="path40"
     inkscape:connector-curvature="0" /><path
     d="m 60.9,41.6 c 0,0.6 0.4,1 1,1 l 4,0 c 0.6,0 1,-0.4 1,-1 l 0,-4 c 0,-0.6 -0.4,-1 -1,-1 l -4,0 c -0.6,0 -1,0.4 -1,1 l 0,4 z"
     id="path42"
     inkscape:connector-curvature="0" /><path
     d="m 25.2,42.6 4,0 c 0.6,0 1,-0.4 1,-1 l 0,-4 c 0,-0.6 -0.4,-1 -1,-1 l -4,0 c -0.6,0 -1,0.4 -1,1 l 0,4 c 0,0.6 0.4,1 1,1 z"
     id="path44"
     inkscape:connector-curvature="0" /><path
     d="m 11,45.6 -4,0 c -0.6,0 -1,0.4 -1,1 l 0,4 c 0,0.6 0.4,1 1,1 l 4,0 c 0.6,0 1,-0.4 1,-1 l 0,-4 c 0,-0.6 -0.5,-1 -1,-1 z"
     id="path46"
     inkscape:connector-curvature="0" /><path
     d="m 16.2,51.6 4,0 c 0.6,0 1,-0.4 1,-1 l 0,-4 c 0,-0.6 -0.4,-1 -1,-1 l -4,0 c -0.6,0 -1,0.4 -1,1 l 0,4 c 0,0.6 0.4,1 1,1 z"
     id="path48"
     inkscape:connector-curvature="0" /><path
     d="m 38.5,45.6 -4,0 c -0.6,0 -1,0.4 -1,1 l 0,4 c 0,0.6 0.4,1 1,1 l 4,0 c 0.6,0 1,-0.4 1,-1 l 0,-4 c 0,-0.6 -0.4,-1 -1,-1 z"
     id="path50"
     inkscape:connector-curvature="0" /><path
     d="m 47.7,45.6 -4,0 c -0.6,0 -1,0.4 -1,1 l 0,4 c 0,0.6 0.4,1 1,1 l 4,0 c 0.6,0 1,-0.4 1,-1 l 0,-4 c 0,-0.6 -0.4,-1 -1,-1 z"
     id="path52"
     inkscape:connector-curvature="0" /><path
     d="m 29.4,45.6 -4,0 c -0.6,0 -1,0.4 -1,1 l 0,4 c 0,0.6 0.4,1 1,1 l 4,0 c 0.6,0 1,-0.4 1,-1 l 0,-4 c 0,-0.6 -0.5,-1 -1,-1 z"
     id="path54"
     inkscape:connector-curvature="0" /><path
     d="m 68.4,4.6 -15.5,0 0,3 15.5,0 c 1.1,0 2,0.9 2,2 l 0,46.8 c 0,1.1 -0.9,2 -2,2 L 5,58.4 c -1.1,0 -2,-0.9 -2,-2 L 3,9.6 c 0,-1.1 0.9,-2 2,-2 l 15.5,0 0,-3 -15.5,0 c -2.8,0 -5,2.2 -5,5 l 0,46.8 c 0,2.8 2.2,5 5,5 l 63.4,0 c 2.8,0 5,-2.2 5,-5 l 0,-46.8 c 0,-2.7 -2.3,-5 -5,-5 z"
     id="path56"
     inkscape:connector-curvature="0" /></svg>