<?xml version="1.0" encoding="UTF-8" standalone="no"?>
<svg
   xmlns:dc="http://purl.org/dc/elements/1.1/"
   xmlns:cc="http://creativecommons.org/ns#"
   xmlns:rdf="http://www.w3.org/1999/02/22-rdf-syntax-ns#"
   xmlns:svg="http://www.w3.org/2000/svg"
   xmlns="http://www.w3.org/2000/svg"
   xmlns:sodipodi="http://sodipodi.sourceforge.net/DTD/sodipodi-0.dtd"
   xmlns:inkscape="http://www.inkscape.org/namespaces/inkscape"
   version="1.1"
   x="0px"
   y="0px"
   viewBox="0 0 77.990005 77.99012"
   id="svg2"
   inkscape:version="0.91 r13725"
   sodipodi:docname="search.svg"
   width="77.990005"
   height="77.99012">
  <metadata
     id="metadata12">
    <rdf:RDF>
      <cc:Work
         rdf:about="">
        <dc:format>image/svg+xml</dc:format>
        <dc:type
           rdf:resource="http://purl.org/dc/dcmitype/StillImage" />
        <dc:title></dc:title>
      </cc:Work>
    </rdf:RDF>
  </metadata>
  <defs
     id="defs10" />
  <sodipodi:namedview
     pagecolor="#ffffff"
     bordercolor="#666666"
     borderopacity="1"
     objecttolerance="10"
     gridtolerance="10"
     guidetolerance="10"
     inkscape:pageopacity="0"
     inkscape:pageshadow="2"
     inkscape:window-width="1311"
     inkscape:window-height="744"
     id="namedview8"
     showgrid="false"
     fit-margin-top="0"
     fit-margin-left="0"
     fit-margin-right="0"
     fit-margin-bottom="0"
     inkscape:zoom="2.36"
     inkscape:cx="39.423729"
     inkscape:cy="38.990117"
     inkscape:window-x="55"
     inkscape:window-y="24"
     inkscape:window-maximized="1"
     inkscape:current-layer="svg2" />
  <g
     transform="translate(-11,-963.36218)"
     id="g4">
    <path
       style="color:#000000;font-style:normal;font-variant:normal;font-weight:normal;font-stretch:normal;font-size:medium;line-height:normal;font-family:Sans;-inkscape-font-specification:Sans;text-indent:0;text-align:start;text-decoration:none;text-decoration-line:none;letter-spacing:normal;word-spacing:normal;text-transform:none;direction:ltr;block-progression:tb;writing-mode:lr-tb;baseline-shift:baseline;text-anchor:start;display:inline;overflow:visible;visibility:visible;opacity:1;fill:#ffffff;fill-opacity:1;stroke:none;stroke-width:3.70370364;marker:none;enable-background:accumulate"
       d="m 40,11 c -15.992569,0 -29,13.00743 -29,29 0,15.9926 13.007431,29 29,29 7.281794,0 13.935267,-2.71093 19.03125,-7.15625 l 26.5625,26.5625 c 0.739036,0.7608 2.097904,0.78525 2.84375,0.03125 0.745845,-0.7541 0.737654,-2.1444 -0.03125,-2.875 L 61.875,59.03125 C 66.312418,53.937244 69,47.274551 69,40 69,24.00743 55.992569,11 40,11 Z m 0,4 C 53.830808,15 65,26.16919 65,40 65,53.8308 53.830808,65 40,65 26.169192,65 15,53.8308 15,40 15,26.16919 26.169192,15 40,15 Z"
       transform="translate(0,952.36218)"
       id="path6"
       inkscape:connector-curvature="0" />
  </g>
</svg>
